<svg width="31" height="31" viewBox="0 0 31 31" fill="none" xmlns="http://www.w3.org/2000/svg">
<path d="M15.5002 31C6.93983 31 0.000244141 24.0604 0.000244141 15.5C0.000244141 6.93959 6.93983 0 15.5002 0C24.0607 0 31.0002 6.93959 31.0002 15.5C30.9908 24.0565 24.0568 30.9906 15.5002 31ZM15.5002 3.1C8.65191 3.1 3.10024 8.65167 3.10024 15.5C3.10024 22.3483 8.65191 27.9 15.5002 27.9C22.3486 27.9 27.9002 22.3483 27.9002 15.5C27.8926 8.65486 22.3454 3.10769 15.5002 3.1ZM23.2502 17.05H13.9502V7.75H17.0502V13.95H23.2502V17.05Z" fill="white"/>
</svg>
