<svg width="57" height="60" viewBox="0 0 57 60" fill="none" xmlns="http://www.w3.org/2000/svg">
<g filter="url(#filter0_d_42_30)">
<path d="M28.5 52L4 27.6775L9.76423 21.951L28.5163 40.5672L47.2684 21.951L53 27.6775L28.5 52ZM28.5 30.049L4 5.72247L9.76423 0L28.5163 18.6162L47.2684 0L53 5.72247L28.5 30.049Z" fill="#BEB6DA"/>
<path d="M28.164 40.922L28.5163 41.2718L28.8686 40.922L47.2673 22.6566L52.2914 27.6764L28.5 51.2954L4.70956 27.6774L9.76435 22.6556L28.164 40.922ZM28.164 18.9711L28.5163 19.3208L28.8686 18.9711L47.2674 0.705543L52.2914 5.72149L28.5 29.3444L4.70966 5.7225L9.76423 0.70455L28.164 18.9711Z" stroke="black"/>
</g>
<defs>
<filter id="filter0_d_42_30" x="0" y="0" width="57" height="60" filterUnits="userSpaceOnUse" color-interpolation-filters="sRGB">
<feFlood flood-opacity="0" result="BackgroundImageFix"/>
<feColorMatrix in="SourceAlpha" type="matrix" values="0 0 0 0 0 0 0 0 0 0 0 0 0 0 0 0 0 0 127 0" result="hardAlpha"/>
<feOffset dy="4"/>
<feGaussianBlur stdDeviation="2"/>
<feComposite in2="hardAlpha" operator="out"/>
<feColorMatrix type="matrix" values="0 0 0 0 0 0 0 0 0 0 0 0 0 0 0 0 0 0 0.25 0"/>
<feBlend mode="normal" in2="BackgroundImageFix" result="effect1_dropShadow_42_30"/>
<feBlend mode="normal" in="SourceGraphic" in2="effect1_dropShadow_42_30" result="shape"/>
</filter>
</defs>
</svg>
