<svg width="30" height="32" viewBox="0 0 30 32" fill="none" xmlns="http://www.w3.org/2000/svg">
<g filter="url(#filter0_d_83_24)">
<path d="M25.6299 11.7263L15.4511 23.1153L13.1091 20.3881L20.8998 11.671L13.2862 2.79872L15.6826 0.134474L25.6299 11.7263ZM16.548 11.6348L6.36757 23.0238L4.02723 20.2966L11.818 11.5795L4.20441 2.70724L6.59906 0.0429757L16.548 11.6348Z" fill="#0ABEFF"/>
<path d="M21.2726 12.0042L21.5644 11.6777L21.2793 11.3454L13.9518 2.80648L15.6737 0.891972L24.9653 11.7196L15.4586 22.3566L13.7738 20.3947L21.2726 12.0042ZM12.1908 11.9127L12.4826 11.5862L12.1974 11.2539L4.86982 2.71488L6.59039 0.800591L15.8834 11.6281L6.37525 22.265L4.69184 20.3033L12.1908 11.9127Z" stroke="black"/>
</g>
<defs>
<filter id="filter0_d_83_24" x="0.0273438" y="0.0429688" width="29.6025" height="31.0723" filterUnits="userSpaceOnUse" color-interpolation-filters="sRGB">
<feFlood flood-opacity="0" result="BackgroundImageFix"/>
<feColorMatrix in="SourceAlpha" type="matrix" values="0 0 0 0 0 0 0 0 0 0 0 0 0 0 0 0 0 0 127 0" result="hardAlpha"/>
<feOffset dy="4"/>
<feGaussianBlur stdDeviation="2"/>
<feComposite in2="hardAlpha" operator="out"/>
<feColorMatrix type="matrix" values="0 0 0 0 0 0 0 0 0 0 0 0 0 0 0 0 0 0 0.25 0"/>
<feBlend mode="normal" in2="BackgroundImageFix" result="effect1_dropShadow_83_24"/>
<feBlend mode="normal" in="SourceGraphic" in2="effect1_dropShadow_83_24" result="shape"/>
</filter>
</defs>
</svg>
